<?xml version="1.0" encoding="utf-8"?>
<!-- Generator: Adobe Illustrator 21.0.0, SVG Export Plug-In . SVG Version: 6.00 Build 0)  -->
<svg version="1.1" id="Layer_1" xmlns="http://www.w3.org/2000/svg" xmlns:xlink="http://www.w3.org/1999/xlink" x="0px" y="0px"
	 viewBox="0 0 100 89" style="enable-background:new 0 0 100 89;" xml:space="preserve">
<style type="text/css">
	.st0{fill:#CCCCCC;}
</style>
<g id="Shopping_Cart_2">
	<g id="Search_2">
		<g>
			<g>
				<g>
					<path class="st0" d="M80,87.4c-0.8,0.7-2.1,0.7-2.8-0.1L55.1,62.9c-0.7-0.8-0.7-2.1,0.1-2.8l10.3-9.3c0.8-0.7,2.1-0.7,2.8,0.1
						l22.1,24.4c0.7,0.8,0.7,2.1-0.1,2.8L80,87.4z"/>
				</g>
			</g>
		</g>
		<g>
			<path class="st0" d="M6.4,31.1c0-3.3,0.5-6.7,1.7-10C13.5,5.3,30.9-3.2,46.8,2.3c12.6,4.4,20.5,16.2,20.5,28.8
				c0,3.3-0.5,6.7-1.7,10C60.1,57,42.7,65.4,26.8,59.9C14.3,55.6,6.4,43.8,6.4,31.1 M14.6,31.1c0,9.5,6,17.9,14.9,21
				c5.6,1.9,11.6,1.6,16.9-1c5.3-2.6,9.3-7.1,11.3-12.7c0.8-2.4,1.2-4.8,1.2-7.3c0-9.5-6-17.9-14.9-21c-5.6-1.9-11.6-1.6-16.9,1
				c-5.3,2.6-9.3,7.1-11.3,12.7l0,0C15,26.2,14.6,28.7,14.6,31.1L14.6,31.1z"/>
		</g>
	</g>
</g>
</svg>
