<?xml version="1.0" encoding="utf-8"?>
<!-- Generator: Adobe Illustrator 21.0.0, SVG Export Plug-In . SVG Version: 6.00 Build 0)  -->
<svg version="1.1" id="Layer_1" xmlns="http://www.w3.org/2000/svg" xmlns:xlink="http://www.w3.org/1999/xlink" x="0px" y="0px"
	 viewBox="0 0 100 89" style="enable-background:new 0 0 100 89;" xml:space="preserve">
<style type="text/css">
	.st0{fill:#999999;}
</style>
<g id="Shopping_Cart_2">
	<path class="st0" d="M95.3,58.6l-70.1,0v-3.4l64.4-8.5c3.4-0.5,5.8-3.2,5.9-6.7V19c0-3.5-2.9-6.3-6.4-6.4H25.3V7.8
		c0-4.3-3.5-7.7-7.8-7.8H5C2.2,0,0,2.2,0,4.9s2.2,4.9,5,4.9h10.3v50.9c0,4.3,3.5,7.8,7.8,7.8h72.2c2.7,0,5-2.2,5-4.9
		C100.3,60.8,98.1,58.6,95.3,58.6z M53.3,44.4L41,46V19.7h12.2V44.4z M59,19.7h12.2V42L59,43.6V19.7z M88.4,39.8l-11.5,1.5V19.7
		h11.5V39.8z M35.3,19.7v27.1l-10.1,1.3V19.7H35.3z"/>
	<ellipse class="st0" cx="37.9" cy="79.2" rx="9.8" ry="9.8"/>
	<ellipse class="st0" cx="85.4" cy="79.2" rx="9.8" ry="9.8"/>
</g>
</svg>
